<svg width="162" height="98" viewBox="0 0 162 98" fill="none" xmlns="http://www.w3.org/2000/svg">
<path d="M135.005 89.4325L135.007 89.4325L138.886 73.4026C121.578 61.7378 101.609 54.8636 80.9502 51.3064C80.4215 51.2694 79.7144 51.2229 79.1874 51.1859C71.317 49.7593 63.5622 49.2257 55.6066 49.0342C46.0537 48.9085 36.8045 49.512 26.9654 50.9603C21.4018 51.8946 16.0269 53.0096 10.7948 54.4195L23.1173 89.1351C23.4977 89.0122 23.8798 88.8909 24.2601 88.7662C31.1771 87.1855 37.8977 85.7622 45.2867 84.764C45.8141 84.8176 46.379 84.5226 46.9243 84.4028C58.0768 83.0912 68.6465 82.2499 79.649 82.3413C80.1764 82.3967 80.7397 82.1017 81.2671 82.157C81.7944 82.2107 82.4971 82.2856 83.0245 82.3409C100.69 82.45 118.087 85.0981 135.005 89.4309L135.007 89.4308" fill="#FFF769"/>
<g filter="url(#filter0_d_1618_2381)">
<path d="M19.7472 46.7267C22.9721 45.9279 27.697 45.2124 27.697 45.2124L25.3145 18.5938C21.4321 20.1364 20.2716 20.5074 16.3525 22.1865L17.8759 32.6003L13.1776 34.9932L11.1065 24.9638C11.1065 24.9638 6.31671 27.623 3.00195 29.7381L7.68689 50.2079C10.7186 49.1828 15.4502 47.5554 15.4502 47.5554L14.2465 40.9773L18.6784 39.1351L19.7472 46.7267Z" fill="white"/>
</g>
<g filter="url(#filter1_d_1618_2381)">
<path d="M43.4246 43.6182L43.5129 36.7522C39.7403 36.8553 36.6353 37.6241 36.6353 37.6241L36.3456 32.5138C36.3456 32.5138 40.5444 31.6684 43.2631 31.2441C43.338 29.4452 43.3064 27.6763 43.368 25.5047C40.4262 25.7093 35.5065 26.5314 35.5065 26.5314L35.2784 21.8104C35.2784 21.8104 39.3057 20.534 43.7343 19.9466C43.8591 18.3441 43.8142 13.1805 43.8142 13.1805C44.2421 13.0207 35.2834 15.1058 27.8281 17.6053L30.1706 44.9228C34.8289 44.1706 43.423 43.6182 43.423 43.6182H43.4246Z" fill="white"/>
</g>
<g filter="url(#filter2_d_1618_2381)">
<path d="M128.373 23.8549C121.846 36.8131 139.829 42.7405 137.023 49.3419C135.613 52.6601 128.255 53.0312 121.25 47.2086C120.365 50.154 119.582 53.5354 118.946 55.8884C120.571 57.0699 130.154 63.1022 139.071 62.0006C143.345 61.4731 147.625 58.313 149.164 53.9215C150.627 49.743 149.61 44.4329 144.56 39.1861C142.711 37.2641 140.24 34.2537 139.792 32.3683C139.433 30.8507 140.248 29.2898 142.093 29.0335C145.732 28.5276 153.231 36.5319 153.231 36.5319L155.232 27.9752C148.827 18.1371 132.994 14.6842 128.374 23.8549H128.373Z" fill="white"/>
</g>
<path d="M41.6904 51.1417C35.8175 51.3219 30.2254 52.2469 30.2254 52.2469C32.0108 57.5683 37.0524 79.3833 38.7142 85.5413C44.5587 84.1133 53.3618 82.8952 53.3618 82.8952L52.2787 75.9908L45.2637 76.8829L41.6904 51.1417Z" fill="#4071FD"/>
<path d="M86.3209 62.7907L91.8347 58.7383C88.2934 51.9829 77.2759 51.191 72.9504 53.5703C67.1484 56.76 65.8107 62.9787 65.7589 65.3134C65.4867 77.761 73.0459 80.5225 77.1954 80.6686C78.0204 80.6977 80.7484 80.7942 82.9721 78.8693C83.7864 78.1645 84.2896 77.3981 84.5861 76.8575L83.9404 80.6995L88.0858 80.7292C88.0858 80.7292 90.031 70.2782 89.9444 70.3599L85.4189 69.3729C83.1847 76.3481 75.5847 73.7023 74.8023 68.1747C74.1553 63.6029 77.9967 57.8901 86.3242 62.7907L86.3209 62.7907Z" fill="#4071FD"/>
<path d="M128.831 70.3292C128.831 70.3292 127.203 73.1286 126.053 74.9774C124.385 73.991 122.604 73.3383 122.604 73.3383L118.292 83.8964L113.284 83.0112L117.613 70.8132C117.613 70.8132 115.775 69.9587 114.106 69.2719C114.693 67.2653 115.358 65.1756 115.902 63.2848C123.461 66.985 128.831 70.3292 128.831 70.3292Z" fill="#4071FD"/>
<g filter="url(#filter3_d_1618_2381)">
<path d="M66.5764 12.8434C61.4286 8.98107 49.926 11.6919 46.831 12.3026L46.3965 43.3826C46.3965 43.3826 50.7867 43.2511 54.4878 43.2561L54.6476 30.7921L60.9774 43.5373C60.9774 43.5373 65.361 43.8652 69.9211 44.3677C66.4798 39.2573 64.8083 35.2569 61.3653 30.1481C62.246 30.1016 62.5124 30.0417 63.9259 29.4692C67.522 28.0115 69.4782 24.6201 69.6414 20.6945C69.6913 19.498 69.8245 15.2779 66.5764 12.8434ZM62.3309 19.9324C62.4092 24.3838 55.3019 23.6849 54.7258 23.6582L54.8091 17.1201C55.217 16.952 62.2544 15.6241 62.3309 19.9324Z" fill="white"/>
</g>
<path d="M17.6532 56.5927C15.7663 57.367 14.9485 60.0143 15.8243 62.5023C16.7017 64.9919 18.9411 66.3805 20.828 65.6062C22.7148 64.832 23.5326 62.1847 22.6569 59.6967C21.7794 57.2071 19.54 55.8184 17.6532 56.5927ZM19.7466 62.5351C19.1458 62.7826 18.4319 62.3401 18.1518 61.5455C17.8718 60.7525 18.1336 59.9097 18.7345 59.6622C19.3353 59.4147 20.0492 59.8572 20.3292 60.6518C20.6093 61.4464 20.3475 62.2876 19.7466 62.5351Z" fill="#4071FD"/>
<path d="M51.416 50.2807C52.4261 56.2595 55.0778 78.2187 55.4498 82.4601L63.8145 81.6092L63.961 50.469C55.6961 49.675 51.416 50.2807 51.416 50.2807Z" fill="#4071FD"/>
<path d="M113.953 62.1942C113.205 64.8034 112.39 67.5921 111.568 70.4143C110.386 74.4525 109.182 78.5561 108.109 82.2891C106.102 82.1039 102.061 81.6558 102.061 81.6558L103.755 73.875L100.424 73.2986C99.8554 76.2435 99.4146 78.455 98.848 81.3998C98.848 81.3998 92.487 80.8648 90.4955 80.8706L94.8116 55.8067C94.8116 55.8067 99.2392 56.6526 103.406 58.0584C102.777 61.3142 101.913 65.5004 101.284 68.7562L104.875 69.7166L107.53 59.5184L113.194 61.8759L113.957 62.1925L113.953 62.1942Z" fill="#4071FD"/>
<g filter="url(#filter4_d_1618_2381)">
<path d="M117.092 55.2062C117.092 55.2062 118.865 49.1406 119.441 46.8175C116.979 45.5162 110.681 43.8006 110.681 43.8006L112.061 35.9661C112.061 35.9661 116.947 36.8114 120.387 38.5271C121.527 35.3753 121.879 33.4749 122.556 30.9921C118.381 29.4163 113.754 28.4411 113.754 28.4411L115.131 21.2024C115.131 21.2024 119.694 21.9246 125.11 24.0596C126.113 21.3139 127.856 15.9905 127.856 15.9905C127.856 15.9905 118.686 13.0966 107.305 11.168L101.714 49.0208C101.714 49.0208 109.321 51.5918 117.087 55.2078L117.092 55.2062Z" fill="white"/>
</g>
<g filter="url(#filter5_d_1618_2381)">
<path d="M107.744 7.194C107.442 5.61479 105.986 4.55477 104.594 3.75269C102.957 2.80916 101.164 1.97878 99.2712 2.00041C96.8554 2.03037 94.6245 3.47479 93.0795 5.34022C91.9907 6.65484 91.1866 8.16749 90.474 9.72507C89.2503 9.42886 87.9367 9.2508 86.5416 9.20255C85.5943 9.16926 84.6703 9.24581 83.7746 9.4222C83.2135 7.9861 82.5609 6.59493 81.6385 5.38681C80.305 3.6412 78.3021 2.29329 76.0313 2.28331C74.2515 2.27499 72.5117 3.07374 70.9101 3.97567C69.5499 4.74115 68.1115 5.75291 67.7286 7.24725C67.4006 8.51861 67.8817 9.91144 68.849 10.7019C70.3291 11.91 74.1283 11.3442 75.2754 11.8584C76.0129 12.1879 76.5923 12.5557 77.0818 12.9451C73.0695 16.656 70.5289 22.6633 70.5089 28.8769C70.4739 39.151 77.4297 46.7625 86.4134 46.4097C95.6517 46.0452 102.343 37.3038 102.376 27.0282C102.396 21.3653 100.68 16.6377 97.4282 13.4776C97.9992 13.0566 98.6635 12.6538 99.4976 12.2844C100.755 11.7303 105.113 12.3926 106.3 10.8683C107.146 9.78331 107.998 8.54191 107.744 7.194ZM85.9672 35.2903C82.7557 35.5499 80.1618 32.4847 80.1768 28.4426C80.1901 24.4006 82.8056 20.9143 86.0188 20.6547C89.2303 20.3951 91.8242 23.4604 91.8092 27.5024C91.7959 31.5428 89.1804 35.0307 85.9672 35.2903Z" fill="white"/>
</g>
<path d="M27.0239 53.4699C27.0239 53.4699 24.1207 54.4557 21.5259 54.9871L25.53 63.9979L27.2974 63.2445L25.7232 59.2401L28.1681 58.632L27.6345 56.9573L24.9978 57.631L24.4552 56.3943L27.6079 55.3999L27.0239 53.4716L27.0239 53.4699Z" fill="#4071FD"/>
<path d="M140.863 72.8091L139.071 72.0629L131.604 89.9697L133.397 90.7159C136.805 92.1359 140.629 91.0713 142.849 88.349L157.493 94.4499L160.479 87.2868L145.835 81.1859C146.206 77.6942 144.271 74.2291 140.863 72.8091Z" fill="#191414"/>
<defs>
<filter id="filter0_d_1618_2381" x="0.00195312" y="16.5938" width="30.6953" height="37.6133" filterUnits="userSpaceOnUse" color-interpolation-filters="sRGB">
<feFlood flood-opacity="0" result="BackgroundImageFix"/>
<feColorMatrix in="SourceAlpha" type="matrix" values="0 0 0 0 0 0 0 0 0 0 0 0 0 0 0 0 0 0 127 0" result="hardAlpha"/>
<feOffset dy="1"/>
<feGaussianBlur stdDeviation="1.5"/>
<feComposite in2="hardAlpha" operator="out"/>
<feColorMatrix type="matrix" values="0 0 0 0 0 0 0 0 0 0 0 0 0 0 0 0 0 0 0.2 0"/>
<feBlend mode="normal" in2="BackgroundImageFix" result="effect1_dropShadow_1618_2381"/>
<feBlend mode="normal" in="SourceGraphic" in2="effect1_dropShadow_1618_2381" result="shape"/>
</filter>
<filter id="filter1_d_1618_2381" x="24.8281" y="11.1719" width="22.001" height="37.75" filterUnits="userSpaceOnUse" color-interpolation-filters="sRGB">
<feFlood flood-opacity="0" result="BackgroundImageFix"/>
<feColorMatrix in="SourceAlpha" type="matrix" values="0 0 0 0 0 0 0 0 0 0 0 0 0 0 0 0 0 0 127 0" result="hardAlpha"/>
<feOffset dy="1"/>
<feGaussianBlur stdDeviation="1.5"/>
<feComposite in2="hardAlpha" operator="out"/>
<feColorMatrix type="matrix" values="0 0 0 0 0 0 0 0 0 0 0 0 0 0 0 0 0 0 0.2 0"/>
<feBlend mode="normal" in2="BackgroundImageFix" result="effect1_dropShadow_1618_2381"/>
<feBlend mode="normal" in="SourceGraphic" in2="effect1_dropShadow_1618_2381" result="shape"/>
</filter>
<filter id="filter2_d_1618_2381" x="115.946" y="16.5098" width="42.2861" height="49.625" filterUnits="userSpaceOnUse" color-interpolation-filters="sRGB">
<feFlood flood-opacity="0" result="BackgroundImageFix"/>
<feColorMatrix in="SourceAlpha" type="matrix" values="0 0 0 0 0 0 0 0 0 0 0 0 0 0 0 0 0 0 127 0" result="hardAlpha"/>
<feOffset dy="1"/>
<feGaussianBlur stdDeviation="1.5"/>
<feComposite in2="hardAlpha" operator="out"/>
<feColorMatrix type="matrix" values="0 0 0 0 0 0 0 0 0 0 0 0 0 0 0 0 0 0 0.2 0"/>
<feBlend mode="normal" in2="BackgroundImageFix" result="effect1_dropShadow_1618_2381"/>
<feBlend mode="normal" in="SourceGraphic" in2="effect1_dropShadow_1618_2381" result="shape"/>
</filter>
<filter id="filter3_d_1618_2381" x="43.3965" y="8.80859" width="29.5244" height="39.5586" filterUnits="userSpaceOnUse" color-interpolation-filters="sRGB">
<feFlood flood-opacity="0" result="BackgroundImageFix"/>
<feColorMatrix in="SourceAlpha" type="matrix" values="0 0 0 0 0 0 0 0 0 0 0 0 0 0 0 0 0 0 127 0" result="hardAlpha"/>
<feOffset dy="1"/>
<feGaussianBlur stdDeviation="1.5"/>
<feComposite in2="hardAlpha" operator="out"/>
<feColorMatrix type="matrix" values="0 0 0 0 0 0 0 0 0 0 0 0 0 0 0 0 0 0 0.2 0"/>
<feBlend mode="normal" in2="BackgroundImageFix" result="effect1_dropShadow_1618_2381"/>
<feBlend mode="normal" in="SourceGraphic" in2="effect1_dropShadow_1618_2381" result="shape"/>
</filter>
<filter id="filter4_d_1618_2381" x="98.7139" y="9.16797" width="32.1416" height="50.0391" filterUnits="userSpaceOnUse" color-interpolation-filters="sRGB">
<feFlood flood-opacity="0" result="BackgroundImageFix"/>
<feColorMatrix in="SourceAlpha" type="matrix" values="0 0 0 0 0 0 0 0 0 0 0 0 0 0 0 0 0 0 127 0" result="hardAlpha"/>
<feOffset dy="1"/>
<feGaussianBlur stdDeviation="1.5"/>
<feComposite in2="hardAlpha" operator="out"/>
<feColorMatrix type="matrix" values="0 0 0 0 0 0 0 0 0 0 0 0 0 0 0 0 0 0 0.2 0"/>
<feBlend mode="normal" in2="BackgroundImageFix" result="effect1_dropShadow_1618_2381"/>
<feBlend mode="normal" in="SourceGraphic" in2="effect1_dropShadow_1618_2381" result="shape"/>
</filter>
<filter id="filter5_d_1618_2381" x="64.626" y="0" width="46.1631" height="50.4219" filterUnits="userSpaceOnUse" color-interpolation-filters="sRGB">
<feFlood flood-opacity="0" result="BackgroundImageFix"/>
<feColorMatrix in="SourceAlpha" type="matrix" values="0 0 0 0 0 0 0 0 0 0 0 0 0 0 0 0 0 0 127 0" result="hardAlpha"/>
<feOffset dy="1"/>
<feGaussianBlur stdDeviation="1.5"/>
<feComposite in2="hardAlpha" operator="out"/>
<feColorMatrix type="matrix" values="0 0 0 0 0 0 0 0 0 0 0 0 0 0 0 0 0 0 0.2 0"/>
<feBlend mode="normal" in2="BackgroundImageFix" result="effect1_dropShadow_1618_2381"/>
<feBlend mode="normal" in="SourceGraphic" in2="effect1_dropShadow_1618_2381" result="shape"/>
</filter>
</defs>
</svg>
